<svg xmlns="http://www.w3.org/2000/svg" xmlns:xlink="http://www.w3.org/1999/xlink" width="500" zoomAndPan="magnify" viewBox="0 0 375 374.999991" height="500" preserveAspectRatio="xMidYMid meet" version="1.0"><defs><g/></defs><g fill="#e8827f" fill-opacity="1"><g transform="translate(160.941813, 249.371115)"><g><path d="M 159.3125 -116.984375 C 155.6875 -116.753906 153.050781 -116.296875 151.40625 -115.609375 C 149.769531 -114.929688 148.664062 -113.628906 148.09375 -111.703125 C 147.53125 -109.773438 147.25 -106.660156 147.25 -102.359375 L 147.25 -18.015625 C 147.25 -13.710938 147.5625 -10.597656 148.1875 -8.671875 C 148.8125 -6.742188 149.914062 -5.4375 151.5 -4.75 C 153.082031 -4.070312 155.6875 -3.625 159.3125 -3.40625 L 159.3125 0 C 152.40625 -0.34375 142.375 -0.515625 129.21875 -0.515625 C 115.507812 -0.515625 105.421875 -0.34375 98.953125 0 L 98.953125 -3.40625 C 103.035156 -3.625 106.007812 -4.070312 107.875 -4.75 C 109.75 -5.4375 111.023438 -6.742188 111.703125 -8.671875 C 112.390625 -10.597656 112.734375 -13.710938 112.734375 -18.015625 L 112.734375 -104.90625 L 71.75 -0.171875 L 69.03125 -0.171875 L 21.078125 -109.328125 L 21.078125 -33.328125 C 21.078125 -24.941406 21.414062 -18.90625 22.09375 -15.21875 C 22.78125 -11.53125 24.285156 -8.835938 26.609375 -7.140625 C 28.929688 -5.441406 32.8125 -4.195312 38.25 -3.40625 L 38.25 0 C 33.601562 -0.34375 27.257812 -0.515625 19.21875 -0.515625 C 13.207031 -0.515625 8.5 -0.34375 5.09375 0 L 5.09375 -3.40625 C 8.613281 -4.195312 11.222656 -5.410156 12.921875 -7.046875 C 14.617188 -8.691406 15.75 -11.210938 16.3125 -14.609375 C 16.882812 -18.015625 17.171875 -23.117188 17.171875 -29.921875 L 17.171875 -102.359375 C 17.171875 -106.660156 16.859375 -109.773438 16.234375 -111.703125 C 15.609375 -113.628906 14.503906 -114.929688 12.921875 -115.609375 C 11.335938 -116.296875 8.726562 -116.753906 5.09375 -116.984375 L 5.09375 -120.375 C 8.5 -120.039062 13.207031 -119.875 19.21875 -119.875 C 32.820312 -119.875 44.550781 -120.039062 54.40625 -120.375 L 86.546875 -48.125 L 114.4375 -119.875 L 129.21875 -119.875 C 142.375 -119.875 152.40625 -120.039062 159.3125 -120.375 Z M 159.3125 -116.984375 "/></g></g></g><g fill="#d65b57" fill-opacity="1"><g transform="translate(84.210428, 249.866849)"><g><path d="M 68.1875 -63.078125 C 79.289062 -62.515625 88.441406 -60.757812 95.640625 -57.8125 C 102.835938 -54.863281 108.078125 -51.207031 111.359375 -46.84375 C 114.648438 -42.476562 116.296875 -37.859375 116.296875 -32.984375 C 116.296875 -21.878906 111.875 -13.601562 103.03125 -8.15625 C 94.195312 -2.71875 81.617188 0 65.296875 0 C 62.003906 0 59.222656 -0.0546875 56.953125 -0.171875 C 49.242188 -0.398438 41.707031 -0.515625 34.34375 -0.515625 C 21.082031 -0.515625 11.222656 -0.34375 4.765625 0 L 4.765625 -3.40625 C 8.390625 -3.625 11.019531 -4.070312 12.65625 -4.75 C 14.300781 -5.4375 15.40625 -6.742188 15.96875 -8.671875 C 16.539062 -10.597656 16.828125 -13.710938 16.828125 -18.015625 L 16.828125 -102.359375 C 16.828125 -106.660156 16.515625 -109.773438 15.890625 -111.703125 C 15.273438 -113.628906 14.171875 -114.929688 12.578125 -115.609375 C 10.992188 -116.296875 8.390625 -116.753906 4.765625 -116.984375 L 4.765625 -120.375 C 11.222656 -120.039062 20.96875 -119.875 34 -119.875 L 53.5625 -120.046875 C 55.820312 -120.160156 58.425781 -120.21875 61.375 -120.21875 C 76.34375 -120.21875 87.765625 -117.804688 95.640625 -112.984375 C 103.515625 -108.171875 107.453125 -101.679688 107.453125 -93.515625 C 107.453125 -89.316406 105.976562 -85.09375 103.03125 -80.84375 C 100.09375 -76.59375 95.675781 -72.878906 89.78125 -69.703125 C 83.882812 -66.535156 76.6875 -64.441406 68.1875 -63.421875 Z M 60.53125 -116.984375 C 57.925781 -116.984375 55.96875 -116.582031 54.65625 -115.78125 C 53.351562 -114.988281 52.472656 -113.570312 52.015625 -111.53125 C 51.566406 -109.5 51.34375 -106.441406 51.34375 -102.359375 L 51.34375 -63.9375 L 55.9375 -63.9375 C 62.0625 -63.9375 66.34375 -66.457031 68.78125 -71.5 C 71.21875 -76.539062 72.4375 -83.253906 72.4375 -91.640625 C 72.4375 -100.253906 71.5 -106.628906 69.625 -110.765625 C 67.757812 -114.910156 64.726562 -116.984375 60.53125 -116.984375 Z M 62.40625 -3.90625 C 74.53125 -3.90625 80.59375 -13.828125 80.59375 -33.671875 C 80.59375 -42.617188 78.4375 -49.414062 74.125 -54.0625 C 69.820312 -58.71875 63.023438 -61.046875 53.734375 -61.046875 L 51.34375 -61.046875 L 51.34375 -18.015625 C 51.34375 -13.941406 51.625 -10.941406 52.1875 -9.015625 C 52.757812 -7.085938 53.8125 -5.753906 55.34375 -5.015625 C 56.875 -4.273438 59.226562 -3.90625 62.40625 -3.90625 Z M 62.40625 -3.90625 "/></g></g></g><path fill="#fdf7f2" d="M 122.195312 176.492188 L 279.640625 176.492188 L 279.640625 202.203125 L 122.195312 202.203125 L 122.195312 176.492188 " fill-opacity="1" fill-rule="nonzero"/><g fill="#846d62" fill-opacity="1"><g transform="translate(133.780927, 193.976945)"><g><path d="M 1.125 0 L 1.125 -9.34375 L 4.390625 -9.34375 C 5.046875 -9.34375 5.582031 -9.226562 6 -9 C 6.425781 -8.78125 6.742188 -8.484375 6.953125 -8.109375 C 7.160156 -7.734375 7.265625 -7.316406 7.265625 -6.859375 C 7.265625 -6.453125 7.191406 -6.117188 7.046875 -5.859375 C 6.910156 -5.597656 6.722656 -5.390625 6.484375 -5.234375 C 6.253906 -5.085938 6.007812 -4.976562 5.75 -4.90625 L 5.75 -4.8125 C 6.03125 -4.789062 6.316406 -4.6875 6.609375 -4.5 C 6.898438 -4.320312 7.140625 -4.0625 7.328125 -3.71875 C 7.523438 -3.382812 7.625 -2.972656 7.625 -2.484375 C 7.625 -2.015625 7.515625 -1.59375 7.296875 -1.21875 C 7.085938 -0.84375 6.753906 -0.546875 6.296875 -0.328125 C 5.835938 -0.109375 5.238281 0 4.5 0 Z M 2.265625 -1 L 4.5 -1 C 5.238281 -1 5.765625 -1.140625 6.078125 -1.421875 C 6.390625 -1.710938 6.546875 -2.066406 6.546875 -2.484375 C 6.546875 -2.796875 6.460938 -3.085938 6.296875 -3.359375 C 6.140625 -3.628906 5.910156 -3.84375 5.609375 -4 C 5.316406 -4.164062 4.96875 -4.25 4.5625 -4.25 L 2.265625 -4.25 Z M 2.265625 -5.234375 L 4.359375 -5.234375 C 4.867188 -5.234375 5.300781 -5.378906 5.65625 -5.671875 C 6.007812 -5.972656 6.1875 -6.367188 6.1875 -6.859375 C 6.1875 -7.265625 6.039062 -7.613281 5.75 -7.90625 C 5.46875 -8.195312 5.015625 -8.34375 4.390625 -8.34375 L 2.265625 -8.34375 Z M 2.265625 -5.234375 "/></g></g></g><g fill="#846d62" fill-opacity="1"><g transform="translate(144.748378, 193.976945)"><g><path d="M 2.265625 -9.34375 L 2.265625 0 L 1.125 0 L 1.125 -9.34375 Z M 2.265625 -9.34375 "/></g></g></g><g fill="#846d62" fill-opacity="1"><g transform="translate(150.758462, 193.976945)"><g><path d="M 1.515625 0 L 0.328125 0 L 3.765625 -9.34375 L 4.921875 -9.34375 L 8.359375 0 L 7.171875 0 L 6.234375 -2.640625 L 2.453125 -2.640625 Z M 2.8125 -3.65625 L 5.875 -3.65625 L 4.375 -7.859375 L 4.3125 -7.859375 Z M 2.8125 -3.65625 "/></g></g></g><g fill="#846d62" fill-opacity="1"><g transform="translate(162.053983, 193.976945)"><g><path d="M 8.53125 -9.34375 L 8.53125 0 L 7.4375 0 L 2.359375 -7.328125 L 2.265625 -7.328125 L 2.265625 0 L 1.125 0 L 1.125 -9.34375 L 2.21875 -9.34375 L 7.328125 -1.984375 L 7.421875 -1.984375 L 7.421875 -9.34375 Z M 8.53125 -9.34375 "/></g></g></g><g fill="#846d62" fill-opacity="1"><g transform="translate(174.333678, 193.976945)"><g><path d="M 8.640625 -6.421875 L 7.515625 -6.421875 C 7.421875 -6.847656 7.242188 -7.207031 6.984375 -7.5 C 6.734375 -7.800781 6.425781 -8.023438 6.0625 -8.171875 C 5.695312 -8.328125 5.304688 -8.40625 4.890625 -8.40625 C 4.328125 -8.40625 3.816406 -8.257812 3.359375 -7.96875 C 2.898438 -7.6875 2.535156 -7.269531 2.265625 -6.71875 C 1.992188 -6.164062 1.859375 -5.484375 1.859375 -4.671875 C 1.859375 -3.859375 1.992188 -3.171875 2.265625 -2.609375 C 2.535156 -2.054688 2.898438 -1.640625 3.359375 -1.359375 C 3.816406 -1.078125 4.328125 -0.9375 4.890625 -0.9375 C 5.304688 -0.9375 5.695312 -1.007812 6.0625 -1.15625 C 6.425781 -1.3125 6.734375 -1.535156 6.984375 -1.828125 C 7.242188 -2.117188 7.421875 -2.484375 7.515625 -2.921875 L 8.640625 -2.921875 C 8.523438 -2.285156 8.289062 -1.738281 7.9375 -1.28125 C 7.582031 -0.820312 7.140625 -0.472656 6.609375 -0.234375 C 6.085938 0.00390625 5.515625 0.125 4.890625 0.125 C 4.085938 0.125 3.375 -0.0664062 2.75 -0.453125 C 2.132812 -0.847656 1.648438 -1.398438 1.296875 -2.109375 C 0.941406 -2.828125 0.765625 -3.679688 0.765625 -4.671875 C 0.765625 -5.648438 0.941406 -6.5 1.296875 -7.21875 C 1.648438 -7.9375 2.132812 -8.488281 2.75 -8.875 C 3.375 -9.269531 4.085938 -9.46875 4.890625 -9.46875 C 5.515625 -9.46875 6.085938 -9.347656 6.609375 -9.109375 C 7.140625 -8.867188 7.582031 -8.519531 7.9375 -8.0625 C 8.289062 -7.601562 8.523438 -7.054688 8.640625 -6.421875 Z M 8.640625 -6.421875 "/></g></g></g><g fill="#846d62" fill-opacity="1"><g transform="translate(186.285312, 193.976945)"><g><path d="M 1.515625 0 L 0.328125 0 L 3.765625 -9.34375 L 4.921875 -9.34375 L 8.359375 0 L 7.171875 0 L 6.234375 -2.640625 L 2.453125 -2.640625 Z M 2.8125 -3.65625 L 5.875 -3.65625 L 4.375 -7.859375 L 4.3125 -7.859375 Z M 2.8125 -3.65625 "/></g></g></g><g fill="#846d62" fill-opacity="1"><g transform="translate(197.58083, 193.976945)"><g/></g></g><g fill="#846d62" fill-opacity="1"><g transform="translate(203.809624, 193.976945)"><g><path d="M 1.125 -9.34375 L 2.484375 -9.34375 L 5.65625 -1.59375 L 5.765625 -1.59375 L 8.9375 -9.34375 L 10.296875 -9.34375 L 10.296875 0 L 9.234375 0 L 9.234375 -7.09375 L 9.140625 -7.09375 L 6.21875 0 L 5.203125 0 L 2.28125 -7.09375 L 2.1875 -7.09375 L 2.1875 0 L 1.125 0 Z M 1.125 -9.34375 "/></g></g></g><g fill="#846d62" fill-opacity="1"><g transform="translate(218.130586, 193.976945)"><g><path d="M 1.125 0 L 1.125 -9.34375 L 6.765625 -9.34375 L 6.765625 -8.34375 L 2.265625 -8.34375 L 2.265625 -5.1875 L 6.46875 -5.1875 L 6.46875 -4.171875 L 2.265625 -4.171875 L 2.265625 -1 L 6.84375 -1 L 6.84375 0 Z M 1.125 0 "/></g></g></g><g fill="#846d62" fill-opacity="1"><g transform="translate(228.423688, 193.976945)"><g><path d="M 1.125 0 L 1.125 -9.34375 L 2.265625 -9.34375 L 2.265625 -1 L 6.609375 -1 L 6.609375 0 Z M 1.125 0 "/></g></g></g><g fill="#846d62" fill-opacity="1"><g transform="translate(238.261157, 193.976945)"><g><path d="M 1.515625 0 L 0.328125 0 L 3.765625 -9.34375 L 4.921875 -9.34375 L 8.359375 0 L 7.171875 0 L 6.234375 -2.640625 L 2.453125 -2.640625 Z M 2.8125 -3.65625 L 5.875 -3.65625 L 4.375 -7.859375 L 4.3125 -7.859375 Z M 2.8125 -3.65625 "/></g></g></g><g fill="#846d62" fill-opacity="1"><g transform="translate(249.556674, 193.976945)"><g><path d="M 1.125 0 L 1.125 -9.34375 L 4.28125 -9.34375 C 5.007812 -9.34375 5.609375 -9.21875 6.078125 -8.96875 C 6.546875 -8.71875 6.894531 -8.375 7.125 -7.9375 C 7.351562 -7.507812 7.46875 -7.019531 7.46875 -6.46875 C 7.46875 -5.851562 7.320312 -5.316406 7.03125 -4.859375 C 6.75 -4.398438 6.3125 -4.066406 5.71875 -3.859375 L 7.828125 0 L 6.515625 0 L 4.546875 -3.65625 C 4.460938 -3.65625 4.382812 -3.65625 4.3125 -3.65625 L 2.265625 -3.65625 L 2.265625 0 Z M 2.265625 -4.671875 L 4.265625 -4.671875 C 5.015625 -4.671875 5.546875 -4.832031 5.859375 -5.15625 C 6.179688 -5.476562 6.34375 -5.914062 6.34375 -6.46875 C 6.34375 -7.039062 6.179688 -7.492188 5.859375 -7.828125 C 5.546875 -8.171875 5.007812 -8.34375 4.25 -8.34375 L 2.265625 -8.34375 Z M 2.265625 -4.671875 "/></g></g></g><g fill="#846d62" fill-opacity="1"><g transform="translate(260.378318, 193.976945)"><g><path d="M 1.125 0 L 1.125 -9.34375 L 6.765625 -9.34375 L 6.765625 -8.34375 L 2.265625 -8.34375 L 2.265625 -5.1875 L 6.46875 -5.1875 L 6.46875 -4.171875 L 2.265625 -4.171875 L 2.265625 -1 L 6.84375 -1 L 6.84375 0 Z M 3.4375 -10.28125 L 4.5625 -12.40625 L 5.8125 -12.40625 L 4.390625 -10.28125 Z M 3.4375 -10.28125 "/></g></g></g></svg>